<svg xmlns="http://www.w3.org/2000/svg" width="30.141" height="24.529" viewBox="62.755 76 30.141 24.529"><path fill="#1c1c1c" d="M82.51 92.807c0 2.332-.857 4.202-2.573 5.61s-3.894 2.112-6.534 2.112c-1.76 0-3.593-.317-5.5-.948-1.907-.63-3.623-1.562-5.148-2.794l2.904-4.137c2.462 1.908 5.087 2.86 7.874 2.86.85 0 1.525-.167 2.024-.505.497-.337.747-.785.747-1.342s-.345-1.07-1.034-1.54c-.69-.47-1.686-.91-2.99-1.32-1.306-.41-2.303-.762-2.99-1.056-.69-.293-1.476-.72-2.356-1.277-1.79-1.114-2.684-2.764-2.684-4.95 0-2.185.88-3.967 2.64-5.346 1.76-1.378 4.034-2.068 6.82-2.068 2.788 0 5.574.938 8.36 2.815l-2.463 4.4c-2.054-1.407-4.1-2.11-6.138-2.11-2.04 0-3.06.557-3.06 1.67 0 .617.322 1.1.97 1.453.643.352 1.714.763 3.21 1.232 1.496.468 2.56.828 3.19 1.077.63.25 1.386.638 2.266 1.166 1.643.998 2.464 2.662 2.464 4.994v.005zm3.763 6.6c-.748-.748-1.122-1.665-1.122-2.75s.376-2.002 1.124-2.75 1.665-1.122 2.75-1.122 2.002.374 2.75 1.122 1.122 1.665 1.122 2.75-.374 2.002-1.122 2.75-1.665 1.122-2.75 1.122-2.002-.376-2.75-1.123z"/></svg>