<svg xmlns="http://www.w3.org/2000/svg" viewBox="0 0 101.2 28.6"><path fill="#ffffff" d="M14.4 17c0 1.7-.6 3.1-1.9 4.1s-2.8 1.5-4.8 1.5c-1.3 0-2.6-.2-4-.7s-2.6-1.1-3.7-2l2.1-3C3.9 18.3 5.8 19 7.8 19c.6 0 1.1-.1 1.5-.4s.5-.6.5-1-.3-.8-.8-1.1c-.5-.3-1.2-.7-2.2-1-.8-.2-1.5-.5-2-.7-.5-.2-1.1-.5-1.7-.9-1.3-.8-2-2-2-3.6S1.7 7.4 3 6.4c1.3-1 2.9-1.5 5-1.5 2 0 4.1.7 6.1 2l-1.8 3.2c-1.5-1-3-1.5-4.5-1.5S5.6 9 5.6 9.8c0 .4.2.8.7 1.1.5.3 1.2.6 2.3.9s1.9.6 2.3.8c.5.2 1 .5 1.6.8 1.3.7 1.9 1.9 1.9 3.6zM26.8 4.9c2 0 3.8.8 5.4 2.5s2.4 3.8 2.4 6.3-.8 4.7-2.4 6.4-3.4 2.6-5.5 2.6-3.8-.8-5.1-2.5v8.5h-4.8V5.2h4.8v1.9c1.4-1.5 3.2-2.2 5.2-2.2zm-5.3 8.9c0 1.4.4 2.5 1.2 3.4s1.7 1.3 2.8 1.3 2.1-.4 2.9-1.3 1.2-2 1.2-3.4-.4-2.5-1.2-3.5c-.8-.9-1.8-1.4-2.9-1.4-1.1 0-2.1.5-2.9 1.4s-1.1 2.1-1.1 3.5zM51.7 19.9c-1.9 1.8-4.2 2.8-6.8 2.8-2.6 0-4.8-.8-6.5-2.4-1.7-1.6-2.6-3.8-2.6-6.5s.9-4.9 2.6-6.5 3.8-2.4 6.2-2.4 4.4.7 6 2.1c1.7 1.4 2.5 3.4 2.5 5.9v2.6H40.6c.1.9.6 1.7 1.5 2.3s1.8.9 2.8.9c1.7 0 3.1-.6 4.2-1.7l2.6 2.9zM47.1 9.7c-.7-.6-1.5-.8-2.4-.8-.9 0-1.8.3-2.6.9s-1.2 1.4-1.4 2.3h7.6c-.2-1.1-.5-1.9-1.2-2.4zM63.6 18.4c1.6 0 3-.8 4.3-2.4l2.8 3.2c-2.2 2.3-4.6 3.5-7.2 3.5-2.6 0-4.8-.8-6.5-2.4-1.8-1.6-2.7-3.8-2.7-6.4S55.2 9 57 7.3s3.9-2.5 6.4-2.5c1.2 0 2.5.3 3.8.8s2.4 1.3 3.3 2.3L68 11.2c-.6-.7-1.2-1.2-2-1.5-.8-.4-1.6-.5-2.4-.5-1.3 0-2.3.4-3.2 1.2s-1.4 2-1.4 3.4c0 1.5.5 2.6 1.4 3.4.9.8 1.9 1.2 3.2 1.2zM78.4 8.6v7.7c0 .7.2 1.2.5 1.6.3.4.7.6 1.2.6.9 0 1.7-.4 2.3-1.2l1.8 3.4c-1.5 1.4-3.1 2-4.7 2s-3.1-.5-4.2-1.6-1.7-2.6-1.7-4.4V8.6h-2V5.2h2V0h4.8v5.2h4.2v3.5c-.1-.1-4.2-.1-4.2-.1zM94.5 9.4c-1.4 0-2.5.5-3.2 1.5-.7 1-1.1 2.4-1.1 4v7.5h-4.8V5.2h4.8v2.3c.6-.7 1.4-1.3 2.3-1.8.9-.5 1.9-.7 2.8-.8v4.5h-.8zM96.3 21.8c-.5-.5-.8-1.2-.8-2s.3-1.5.8-2 1.2-.8 2-.8 1.5.3 2 .8.8 1.2.8 2-.3 1.5-.8 2-1.2.8-2 .8-1.4-.2-2-.8z"/></svg>