<svg xmlns="http://www.w3.org/2000/svg" viewBox="0 0 140 40"><path fill="#ffffff" d="M18.9 24c0 2.3-.9 4.2-2.6 5.6-1.7 1.4-3.9 2.1-6.5 2.1-1.8 0-3.6-.3-5.5-.9C2.4 30.2.7 29.2-.8 28l2.9-4.1c2.5 1.9 5.1 2.9 7.9 2.9.9 0 1.5-.2 2-.5s.7-.8.7-1.3c0-.6-.3-1.1-1-1.5-.7-.5-1.7-.9-3-1.3s-2.3-.8-3-1.1c-.7-.3-1.5-.7-2.4-1.3C1.5 18.7.6 17 .6 14.9c0-2.2.9-4 2.6-5.3C5 8.2 7.2 7.5 10 7.5s5.6.9 8.4 2.8L16 14.5c-2.1-1.4-4.1-2.1-6.1-2.1s-3.1.6-3.1 1.7c0 .6.3 1.1 1 1.5.6.4 1.7.8 3.2 1.2 1.5.5 2.6.8 3.2 1.1.6.2 1.4.6 2.3 1.2 1.6.9 2.4 2.5 2.4 4.9zM36 7.3c2.8 0 5.2 1.2 7.4 3.5s3.2 5.2 3.2 8.7-1.1 6.4-3.2 8.8c-2.2 2.3-4.7 3.5-7.6 3.5-2.9 0-5.2-1.2-7-3.5V40h-6.6V7.7h6.6v2.6c2.1-2 4.5-3 7.2-3zm-7.2 12.2c0 1.9.5 3.5 1.6 4.7 1.1 1.2 2.4 1.8 3.9 1.8s2.9-.6 4-1.8c1.1-1.2 1.7-2.8 1.7-4.7 0-1.9-.6-3.5-1.7-4.8-1.1-1.3-2.4-1.9-4-1.9s-2.9.6-3.9 1.9c-1.1 1.3-1.6 2.9-1.6 4.8zM70.3 27.9c-2.7 2.5-5.8 3.8-9.4 3.8-3.6 0-6.6-1.1-8.9-3.3-2.3-2.2-3.5-5.2-3.5-8.9s1.2-6.7 3.6-8.9c2.4-2.2 5.2-3.3 8.5-3.3s6 1 8.3 2.9c2.3 2 3.4 4.7 3.4 8.1v3.5H55c.2 1.3.9 2.3 2 3.2 1.1.8 2.4 1.2 3.9 1.2 2.3 0 4.2-.8 5.7-2.3l3.7 4zm-6.3-14c-.9-.8-2-1.1-3.3-1.1-1.3 0-2.5.4-3.6 1.2-1.1.8-1.7 1.9-1.9 3.2h10.4c-.2-1.5-.7-2.6-1.6-3.3zM86.6 25.8c2.2 0 4.2-1.1 5.9-3.3l3.9 4.4c-3.1 3.2-6.4 4.8-9.9 4.8s-6.5-1.1-9-3.4c-2.4-2.2-3.7-5.2-3.7-8.8 0-3.6 1.2-6.6 3.7-8.8 2.5-2.3 5.4-3.4 8.8-3.4 1.7 0 3.4.4 5.2 1.1 1.7.7 3.3 1.7 4.6 3.1L92.7 16c-.7-1-1.7-1.7-2.8-2.2-1.1-.5-2.2-.7-3.3-.7-1.7 0-3.2.6-4.5 1.7-1.2 1.1-1.9 2.7-1.9 4.7s.6 3.6 1.9 4.7c1.3 1.1 2.8 1.6 4.5 1.6zM106.9 12.4V23c0 .9.2 1.6.7 2.1.5.5 1 .8 1.7.8 1.2 0 2.3-.6 3.1-1.7l2.5 4.6c-2.1 1.9-4.2 2.8-6.5 2.8s-4.2-.7-5.8-2.2c-1.6-1.5-2.4-3.5-2.4-6.1V12.4h-2.8V7.7h2.8V.6h6.6v7.1h5.7v4.8h-5.6zM129.1 13.5c-2 0-3.4.7-4.4 2.1-1 1.4-1.5 3.2-1.5 5.5v10.3h-6.6V7.7h6.6v3.1c.9-1 1.9-1.8 3.2-2.5 1.3-.7 2.6-1 3.9-1.1v6.2h-1.2zM131.6 30.6c-.7-.7-1.1-1.7-1.1-2.8 0-1.1.4-2 1.1-2.8s1.7-1.1 2.8-1.1c1.1 0 2 .4 2.8 1.1s1.1 1.7 1.1 2.8c0 1.1-.4 2-1.1 2.8s-1.7 1.1-2.8 1.1c-1.1 0-2-.4-2.8-1.1z"/></svg>